<svg version="1.1" id="prefix__Layer_1" xmlns="http://www.w3.org/2000/svg" x="0" y="0" width="20" height="20" xml:space="preserve"><style>.prefix__st1{fill-rule:evenodd;clip-rule:evenodd;fill:#946ce6}</style><circle cx="10" cy="10" r="10" fill="#fff"/><path class="prefix__st1" d="M7.9 11.9c-.3 0-.4.2-.4.4 0 .3.2.4.4.4.3 0 .4-.2.4-.4s-.2-.4-.4-.4zM11.6 13.1c-.3 0-.4.2-.4.4 0 .3.2.4.4.4.3 0 .4-.2.4-.4.1-.2-.1-.4-.4-.4z"/><linearGradient id="prefix__SVGID_1_" gradientUnits="userSpaceOnUse" x1="11.549" y1="131.16" x2="8.426" y2="116.691" gradientTransform="translate(0 -114)"><stop offset="0" stop-color="#aa84f5"/><stop offset="1" stop-color="#885fd9"/></linearGradient><path d="M17.5 14.2c-.2.1-.3.1-.5 0-.1 0-.3-.1-.3-.1-.3-.1-.7-.2-.7-.3-.1-.2-.3-.2-.5-.1s-.2.3-.1.5c0 .1.1.1.2.2-.6.8-3.1 2.3-6.6 1.6-1.6-.3-2.7-.9-3.1-1.8-.3-.6-.3-1.3-.1-1.6.4-.9 3.5-3 5.6-4.1.2-.1.3-.3.2-.5-.1-.2-.3-.3-.5-.2-.2.1-.7.4-1.4.9-.5-.3-.9-.5-1.5-.6C7.1 8 4.7 7.5 4 7.3c-.6-.3-1.9-.9-1.6-1.6.1-.2.3-.4 1-.7.6-.2 1-.3 1.4-.3-.1 0-.1.1-.2.1-.4.1-.9.4-1.3.7 0 0-.1 0-.1-.1-.2-.2-.3-.2-.5 0V6c.2.1.3.3.6.3.9.3 2.4.3 4.6.2.9 0 1.8-.1 2.6-.1 2.5.1 4.3 1 5.6 3 .9 1.2.5 2.4.1 3.5l-.2-.2c-.1-.2-.3-.2-.5-.1s-.2.3-.1.5c.1.1.4.5.9.5h.1c.3-.1.5-.1.7.1.3.2.3.3.3.3.2.1.2.1.1.2zM7.3 10c-.1 0-.2.1-.2.1 0-.1-.1-.2-.1-.2.1 0 .1 0 .3.1zm10.4 3.1c-.2-.1-.3-.2-.6-.2.4-1.1.7-2.5-.3-3.9-1.5-2.2-3.5-3.3-6.2-3.4-.8 0-1.6 0-2.6.1-1.1.1-2.6.1-3.5 0 .1-.1.3-.2.5-.3.7-.3 1.3-.6 1-1-.1-.3-.3-.5-.8-.5-.9 0-3.1.5-3.5 1.6C1.5 6 1.5 7 3.6 8c.9.3 3.5.8 4.4.9.3 0 .5.1.7.2-.2.1-.4.2-.7.4-.3-.2-1-.5-1.5-.2-.2.1-.3.4-.3.6 0 .3.2.5.3.8-.7.6-1.3 1.1-1.6 1.6-.3.5-.3 1.4.1 2.2.5 1.1 1.7 1.8 3.6 2.2 2.4.5 4.5.1 5.9-.7.8-.4 1.3-.9 1.6-1.3.1 0 .2.1.3.1.1 0 .3.1.3.1.3.1.8.1 1.1-.1.3-.1.4-.3.5-.6.2-.5-.3-1-.6-1.1z" fill-rule="evenodd" clip-rule="evenodd" fill="url(#prefix__SVGID_1_)"/></svg>